<?xml version="1.0" encoding="utf-8"?>
<!-- Generator: Adobe Illustrator 19.1.0, SVG Export Plug-In . SVG Version: 6.00 Build 0)  -->
<svg version="1.1" id="Calque_1" xmlns="http://www.w3.org/2000/svg" xmlns:xlink="http://www.w3.org/1999/xlink" x="0px" y="0px"
	 viewBox="0 0 595.3 841.9" style="enable-background:new 0 0 595.3 841.9;" xml:space="preserve">
<style type="text/css">
	.st0{fill:#FFFFFF;}
</style>
<path class="st0" d="M-47,765.6c0-229.8,0-459.5,0-689.3c229.7,0,459.5,0,689.3,0c0,229.7,0,459.5,0,689.3
	C412.6,765.6,182.8,765.6-47,765.6z M7.8,421c0.3,49.7,11.9,96.3,35.9,139.5c32.3,58.1,79.1,100.4,140.1,126.9
	c36.2,15.7,74.1,23.2,113.6,23.2c0-8.7,0-17,0-25.3c-72.6-1.3-135.3-26.4-186.7-77.8C59.5,556.2,34.5,493.4,33.2,421
	C24.7,421,16.4,421,7.8,421z M587.2,417.6c0.1-158.8-135-288.7-289.4-286.2c0,8.3,0,16.7,0,25c72,1.3,134.4,26.1,185.6,76.7
	c51.2,50.6,76.6,112.7,78.7,184.5C570.6,417.6,578.8,417.6,587.2,417.6z M131.8,585.1c-44.2-45.4-67.3-100-67.5-163.6
	c-0.2-63.6,22.5-118.4,66.3-164c-5.8-5.8-11.4-11.4-17.4-17.4c-53.1,56.2-78.6,123.1-72.9,200.3c4.6,62.7,30,117.1,74.4,162
	C120.5,596.4,126.1,590.7,131.8,585.1z M479.4,602.7c100.1-96.7,100.9-262.6,3.7-360.2c-5.7,5.6-11.4,11.3-17.1,16.9
	c43.1,46,65.2,100.8,64.5,163.9c-0.7,63.2-24.1,117.5-68.1,162.3C468.2,591.4,473.8,597.1,479.4,602.7z M297.7,410
	c-5.9,0-10.8,4.8-10.8,10.7c-0.1,6,4.8,11,10.9,11c5.9,0,10.8-4.8,10.8-10.7C308.6,415,303.7,410,297.7,410z"/>
<path d="M7.8,421c8.6,0,16.9,0,25.4,0c1.3,72.4,26.3,135.2,77.7,186.5c51.3,51.4,114.1,76.5,186.7,77.8c0,8.4,0,16.6,0,25.3
	c-39.5,0-77.4-7.5-113.6-23.2c-61-26.4-107.8-68.8-140.1-126.9C19.7,517.3,8.1,470.7,7.8,421z"/>
<path d="M587.2,417.6c-8.4,0-16.6,0-25.1,0c-2.1-71.8-27.5-133.8-78.7-184.5c-51.2-50.7-113.5-75.4-185.6-76.7c0-8.4,0-16.7,0-25
	C452.3,128.9,587.3,258.8,587.2,417.6z"/>
<path d="M131.8,585.1c-5.7,5.7-11.3,11.3-17.2,17.3c-44.4-44.9-69.8-99.3-74.4-162c-5.6-77.2,19.9-144.1,72.9-200.3
	c6,6,11.6,11.6,17.4,17.4C86.8,303,64,357.9,64.3,421.5C64.5,485,87.6,539.6,131.8,585.1z"/>
<path d="M479.4,602.7c-5.6-5.6-11.2-11.2-17-17.1c44-44.8,67.4-99.1,68.1-162.3c0.7-63.1-21.3-117.9-64.5-163.9
	c5.7-5.7,11.4-11.3,17.1-16.9C580.3,340.1,579.5,506,479.4,602.7z"/>
<path d="M297.7,410c6,0,10.9,4.9,10.9,11c-0.1,5.9-4.9,10.7-10.8,10.7c-6,0-10.9-4.9-10.9-11C286.9,414.9,291.8,410.1,297.7,410z"/>
</svg>
